<?xml version="1.0" encoding="UTF-8"?><svg id="Layer_1" xmlns="http://www.w3.org/2000/svg" viewBox="0 0 800 800"><defs><style>.cls-1{fill-rule:evenodd;}.cls-2{fill:#fff;}.cls-3{fill:#ed002b;}</style></defs><rect class="cls-3" x="173.35" y="107.54" width="453.19" height="453.21"/><path class="cls-2" d="M313.38,315.88v-.05s0,.05,0,.05Z"/><path class="cls-2" d="M323.44,300.25l2.5-1.44c1.23-.71,1.98-2.12,1.66-3.51-.52-2.26-2.95-3.2-4.78-2.15.16-.1-2.64,1.54-2.6,1.51-.23.16-.57-.05-.55-.32v-2.89c0-1.42-.85-2.77-2.2-3.19-2.22-.68-4.25.96-4.25,3.07v3.01c.02.28-.32.47-.55.32l-2.61-1.51c-3.74-2.02-6.85,3.37-3.22,5.59-.17-.09,2.65,1.52,2.61,1.5.25.12.25.52,0,.64,0,0-2.45,1.41-2.45,1.41-1.38.8-2.13,2.47-1.58,3.97.71,1.94,2.95,2.69,4.66,1.71l2.6-1.51c.23-.16.57.05.55.32v2.83c.07,4.43,6.27,4.53,6.46.18v-3.01c-.02-.28.32-.47.55-.32-.04-.03,2.75,1.6,2.61,1.5,3.73,2.03,6.86-3.36,3.23-5.59l-2.61-1.5c-.25-.12-.25-.52,0-.64Z"/><path class="cls-2" d="M534.04,368.16c-.58-3.19-3.02-3.66-4.62-4.09-3.12-.83-6.25-4.51-6.25-9.46v-8.31c0-5.4-3.46-9.65-8.25-11.4-.36-.09-.54-.42-.55-.75,0-.33.19-.66.55-.75,4.79-1.75,8.25-6,8.25-11.4v-8.31c0-4.95,3.13-8.63,6.25-9.47,1.59-.43,4.04-.89,4.62-4.09.52-2.87.51-2.87.83-4.86.39-2.36-1.75-3.48-4.86-2.82-4.25.89-8.4,2.69-11.7,5.99-4.17,4.17-4.88,6.45-6.07,14.14q-.64,4.15-1.08,6.61c-.55,3.11-1.22,5.93-4.35,7.11-3.37,1.27-5.84,3.58-5.84,7.85s2.47,6.59,5.84,7.85c3.13,1.18,3.8,4,4.35,7.11q.44,2.46,1.08,6.61c1.19,7.69,1.9,9.97,6.07,14.14,3.3,3.3,7.46,5.09,11.7,5.99,3.11.66,5.25-.46,4.86-2.82-.33-1.99-.32-1.99-.83-4.86Z"/><path class="cls-2" d="M471.65,294.07c-1.38-1.29-4.17-1.2-5.52.76-1.03,1.48-2.98,5.13-1.19,7.74,7.02,10.26,9.1,19.5,9.1,31.57h0c0,12.07-2.08,21.32-9.1,31.57-1.79,2.61.17,6.26,1.19,7.74,1.35,1.96,4.14,2.05,5.52.76,14.81-13.83,18.27-28.1,18.27-40.07s-3.46-26.24-18.27-40.07Z"/><path class="cls-2" d="M430.81,281.24c-1.82-1.47-5.31-1.22-6.99,1.2-1.27,1.83-3.87,6.48-1.47,9.57,10.33,13.31,14.13,27.22,14.13,42.13h0c0,14.92-3.8,28.83-14.13,42.14-2.4,3.09.2,7.73,1.47,9.57,1.67,2.42,5.17,2.67,6.99,1.2,21.07-17.02,25.3-38.1,25.3-52.91s-4.23-35.89-25.3-52.91Z"/><path class="cls-2" d="M385.74,273.61c-2.11-1.5-5.71-1.64-7.57,1.05-1.4,2.03-4.22,7.13-1.63,10.6,13.09,17.57,17.47,32.36,17.47,48.88h0c0,16.53-4.38,31.32-17.47,48.89-2.59,3.47.23,8.57,1.63,10.6,1.86,2.69,5.46,2.54,7.57,1.05,23.83-16.93,30.01-44.13,30.01-60.53s-6.19-43.6-30.01-60.53Z"/><path class="cls-2" d="M345.23,278.38c-1.81-1.47-5.15-1.48-6.83.94-1.27,1.83-3.79,6.42-1.47,9.57,12.44,16.85,15.7,30.34,15.7,45.25h0c0,14.92-3.27,28.4-15.7,45.26-2.32,3.14.2,7.73,1.47,9.57,1.67,2.42,5.02,2.42,6.83.94,22.68-18.43,27.03-40.96,27.03-55.77s-4.34-37.34-27.03-55.77Z"/><path class="cls-2" d="M282.98,336.32c-1.09-1.24-1.09-3.1,0-4.34,2.65-3.02,7.35-8.33,9.32-10.35,2.3-2.35,3.41-3.98,3.29-5.94q-.21-3.36-.35-5.61c-.17-2.68-3.65-4.17-6.3-1.67-5.36,5.06-21.59,20.06-21.59,20.06-1.47,1.45-2.38,3.45-2.38,5.68,0,2.23.91,4.23,2.38,5.68,0,0,16.23,15,21.59,20.06,2.65,2.5,6.13,1.01,6.3-1.67q.15-2.25.35-5.61c.12-1.96-.99-3.59-3.29-5.94-1.98-2.02-6.68-7.34-9.32-10.35Z"/><path class="cls-1" d="M305.44,653.57h23.38c19.95,0,32.82-11.61,32.82-29.53s-12.62-29.44-32.07-29.44h-24.13c-1.22,0-2.21.99-2.21,2.21v54.55c0,1.22.99,2.21,2.21,2.21ZM322.46,611.87c0-1.22.99-2.21,2.21-2.21h4.19c7.57,0,13.06,5.72,13.06,14.47s-5.06,14.22-12.13,14.22h-5.11c-1.22,0-2.21-.99-2.21-2.21v-24.27Z"/><path class="cls-1" d="M204.58,654.48c8.4,0,17.59-3.95,24.12-10.2.88-.84.94-2.23.1-3.12l-8.3-8.85c-.82-.87-2.18-.93-3.08-.14-3.66,3.24-8.17,5.23-11.84,5.23-7.07,0-13.63-5.72-13.63-13.63s6.56-13.46,13.63-13.46c3.89,0,8.34,2.28,11.76,5.95.91.98,2.46.97,3.33-.06l8.27-9.81c.76-.91.67-2.25-.2-3.05-6.11-5.69-15.12-9.26-23.41-9.26-18.52,0-31.98,12.62-31.98,29.95s13.13,30.45,31.22,30.45Z"/><path class="cls-1" d="M263.94,654.48c18.77,0,32.4-12.87,32.4-30.37s-13.63-30.03-32.4-30.03-32.4,12.53-32.4,30.03,13.63,30.37,32.4,30.37ZM264.43,610.18c6.73,0,12.64,5.8,12.64,13.88s-5.91,14.05-12.64,14.05-13.14-5.97-13.14-14.05,6.33-13.88,13.14-13.88Z"/><path class="cls-1" d="M370.38,653.57h46.25c1.22,0,2.21-.99,2.21-2.21v-10.39c0-1.21-.99-2.21-2.21-2.21h-26.72c-1.22,0-2.21-.99-2.21-2.21v-2.9c0-1.21.99-2.21,2.21-2.21h23.19c1.22,0,2.21-.99,2.21-2.21v-10.39c0-1.21-.99-2.21-2.21-2.21h-23.19c-1.22,0-2.21-.99-2.21-2.21v-2.82c0-1.21.99-2.21,2.21-2.21h25.96c1.22,0,2.21-.99,2.21-2.21v-10.39c0-1.21-.99-2.21-2.21-2.21h-45.49c-1.22,0-2.21.99-2.21,2.21v54.55c0,1.21.99,2.21,2.21,2.21Z"/><path class="cls-1" d="M430.13,653.57h15.11c1.22,0,2.21-.99,2.21-2.21v-14.76c0-1.22.99-2.21,2.21-2.21h21.76c1.22,0,2.21-.99,2.21-2.21v-10.39c0-1.22-.99-2.21-2.21-2.21h-21.76c-1.22,0-2.21-.99-2.21-2.21v-5.76c0-1.22.99-2.21,2.21-2.21h23.52c1.22,0,2.21-.99,2.21-2.21v-10.39c0-1.22-.99-2.21-2.21-2.21h-43.05c-1.22,0-2.21.99-2.21,2.21v54.55c0,1.22.99,2.21,2.21,2.21Z"/><path d="M484.68,594.6h15.11c1.22,0,2.21.99,2.21,2.21v54.55c0,1.22-.99,2.21-2.21,2.21h-15.11c-1.22,0-2.21-.99-2.21-2.21v-54.55c0-1.22.99-2.21,2.21-2.21Z"/><path class="cls-1" d="M532.26,610.7c0-1.77,1.43-2.44,3.62-2.44,4.59,0,12.41,2.89,18.29,5.85,1.11.56,2.45.1,2.99-1.02l5.21-10.91c.51-1.06.09-2.33-.95-2.9-6.53-3.6-15.33-5.91-23.85-5.91-15.32,0-25.25,7.4-25.25,19.18,0,20.69,30.55,15.65,30.55,23.3,0,2.1-1.85,3.03-4.71,3.03-5.34,0-14.23-3.29-20.39-7.59-1.12-.78-2.66-.41-3.27.82l-5.22,10.56c-.48.98-.19,2.18.72,2.79,7.74,5.28,18.38,8.31,27.99,8.31,13.3,0,24.83-5.8,24.83-18.93,0-21.37-30.55-16.74-30.55-24.14Z"/><path class="cls-1" d="M624.33,594.6h-15.11c-1.22,0-2.21.99-2.21,2.21v18.47c0,1.22-.99,2.21-2.21,2.21h-13.85c-1.22,0-2.21-.99-2.21-2.21v-18.47c0-1.22-.99-2.21-2.21-2.21h-15.11c-1.22,0-2.21.99-2.21,2.21v54.55c0,1.22.99,2.21,2.21,2.21h15.11c1.22,0,2.21-.99,2.21-2.21v-16.87c0-1.22.99-2.21,2.21-2.21h13.85c1.22,0,2.21.99,2.21,2.21v16.87c0,1.22.99,2.21,2.21,2.21h15.11c1.22,0,2.21-.99,2.21-2.21v-54.55c0-1.22-.99-2.21-2.21-2.21Z"/><path d="M329.41,685.28c0-.62.18-1.06.55-1.33.37-.27.73-.4,1.07-.4h1.88c.95,0,1.66.49,2.13,1.48.52,1.07,1.64,1.61,3.36,1.61l5.52.11c1.85,0,2.78-.6,2.78-1.81,0-.53-.31-.98-.93-1.36-.62-.38-1.44-.7-2.46-.94-1.02-.25-2.14-.52-3.36-.82-1.22-.3-2.45-.59-3.68-.89s-2.34-.68-3.33-1.15c-.99-.47-1.79-1.12-2.4-1.94-.61-.82-.92-1.79-.92-2.91,0-2.11.75-3.74,2.26-4.88,1.5-1.14,4.09-1.71,7.76-1.71l4.01.09c2.16,0,4.1.55,5.83,1.66,1.73,1.11,2.59,2.49,2.59,4.16,0,.62-.18,1.07-.55,1.34-.37.27-.72.41-1.06.41h-1.88c-.95,0-1.66-.5-2.13-1.5-.52-1.07-1.64-1.61-3.36-1.61l-4.75-.09c-1.85,0-2.78.6-2.78,1.81,0,.66.6,1.15,1.81,1.47,1.2.32,2.62.69,4.26,1.12,1.63.43,3.29.87,4.98,1.31,1.69.44,3.12,1.18,4.29,2.22,1.17,1.04,1.76,2.33,1.76,3.88,0,2.11-.75,3.74-2.26,4.88-1.51,1.14-4.09,1.71-7.75,1.71l-4.78-.09c-2.16,0-4.1-.55-5.84-1.66-1.74-1.11-2.6-2.49-2.6-4.16Z"/><path d="M354.53,671.43v-1.48c0-.43.14-.79.43-1.07.28-.28.64-.43,1.07-.43h20.02c.43,0,.79.14,1.07.43.28.28.43.64.43,1.07v1.48c0,.43-.14.79-.43,1.06-.28.28-.64.42-1.07.42h-7.04v16.7c0,.41-.14.75-.43,1.03-.29.28-.64.42-1.05.42h-2.98c-.41,0-.76-.14-1.05-.42-.29-.28-.43-.62-.43-1.03v-16.7h-7.04c-.43,0-.79-.14-1.07-.42-.28-.28-.43-.63-.43-1.06Z"/><path d="M380.45,682.13v-12.18c0-.41.14-.76.43-1.06.29-.29.65-.44,1.08-.44h2.95c.41,0,.76.15,1.05.44.29.29.43.65.43,1.06v12.2c0,1.54.34,2.7,1.02,3.45.68.76,1.73,1.13,3.15,1.13h2.52c1.42,0,2.47-.38,3.15-1.13.68-.76,1.02-1.91,1.02-3.45v-12.2c0-.41.14-.76.43-1.06.29-.29.64-.44,1.05-.44h2.93c.43,0,.79.15,1.09.44.29.29.44.65.44,1.06v12.18c0,2.88-.85,5.11-2.54,6.7-1.69,1.58-4.16,2.37-7.41,2.37h-2.84c-3.25,0-5.72-.79-7.41-2.37-1.69-1.58-2.54-3.81-2.54-6.7Z"/><path d="M408.02,689.62v-19.64c0-.43.15-.79.44-1.09.29-.29.65-.44,1.06-.44h8.82c4.56,0,7.88.91,9.96,2.74,2.08,1.82,3.12,4.68,3.12,8.58s-1.04,6.75-3.12,8.57c-2.08,1.82-5.4,2.73-9.96,2.73h-8.82c-.41,0-.76-.14-1.06-.42-.29-.28-.44-.62-.44-1.03ZM413.97,686.61h4.2c2.82,0,4.74-.52,5.77-1.55,1.03-1.03,1.54-2.79,1.54-5.29s-.51-4.26-1.53-5.3c-1.02-1.04-2.94-1.55-5.77-1.55h-4.2v13.69Z"/><path d="M435.27,689.62v-19.67c0-.41.15-.76.44-1.06.29-.29.65-.44,1.06-.44h2.93c.43,0,.79.15,1.08.44.29.29.43.65.43,1.06v19.64c0,.41-.15.76-.45,1.05-.3.29-.65.43-1.06.43h-2.93c-.41,0-.76-.14-1.06-.42-.29-.28-.44-.62-.44-1.03Z"/><path d="M448.32,688.74c-2.16-1.88-3.23-4.87-3.23-8.97s1.08-7.08,3.23-8.97c2.16-1.88,5.31-2.82,9.47-2.82s7.31.94,9.46,2.82c2.15,1.88,3.23,4.87,3.23,8.97s-1.08,7.08-3.23,8.97c-2.15,1.88-5.31,2.82-9.46,2.82s-7.32-.94-9.47-2.82ZM452.63,674.13c-1.07,1.26-1.6,3.14-1.6,5.65s.53,4.38,1.6,5.64c1.07,1.26,2.79,1.89,5.16,1.89s4.09-.63,5.15-1.89c1.06-1.26,1.59-3.14,1.59-5.64s-.53-4.38-1.59-5.65c-1.06-1.26-2.78-1.89-5.15-1.89s-4.09.63-5.16,1.89Z"/></svg>