<?xml version="1.0" encoding="UTF-8"?><svg id="Layer_1" xmlns="http://www.w3.org/2000/svg" viewBox="0 0 800 150"><defs><style>.cls-1{fill-rule:evenodd;}.cls-1,.cls-2{fill:#fff;}</style></defs><path class="cls-1" d="M179.18,49.44h-21.17c-1.07,0-1.94.87-1.94,1.94v47.84c0,1.07.87,1.94,1.94,1.94h20.5c17.49,0,28.79-10.18,28.79-25.89s-11.07-25.82-28.12-25.82ZM179.35,87.8h-4.48c-1.07,0-1.94-.87-1.94-1.94v-21.28c0-1.07.87-1.94,1.94-1.94h3.67c6.64,0,11.45,5.02,11.45,12.69s-4.44,12.47-10.64,12.47Z"/><path class="cls-1" d="M70.44,63.22c3.41,0,7.31,2,10.31,5.22.8.86,2.16.85,2.92-.05l7.26-8.61c.67-.79.59-1.97-.17-2.68-5.35-4.99-13.26-8.12-20.53-8.12-16.24,0-28.05,11.07-28.05,26.26s11.51,26.71,27.38,26.71c7.37,0,15.43-3.47,21.15-8.94.77-.74.82-1.96.09-2.74l-7.28-7.76c-.72-.77-1.91-.82-2.7-.12-3.21,2.85-7.16,4.59-10.38,4.59-6.2,0-11.95-5.02-11.95-11.95s5.75-11.8,11.95-11.8Z"/><path class="cls-1" d="M121.62,48.99c-16.46,0-28.42,10.99-28.42,26.34s11.96,26.63,28.42,26.63,28.42-11.29,28.42-26.63-11.96-26.34-28.42-26.34ZM122.04,87.6c-5.9,0-11.53-5.24-11.53-12.32s5.55-12.17,11.53-12.17,11.08,5.09,11.08,12.17-5.18,12.32-11.08,12.32Z"/><path class="cls-1" d="M255.52,88.17h-23.44c-1.07,0-1.94-.87-1.94-1.94v-2.55c0-1.07.87-1.94,1.94-1.94h20.34c1.07,0,1.94-.87,1.94-1.94v-9.11c0-1.07-.87-1.94-1.94-1.94h-20.34c-1.07,0-1.94-.87-1.94-1.94v-2.47c0-1.07.87-1.94,1.94-1.94h22.77c1.07,0,1.94-.87,1.94-1.94v-9.11c0-1.07-.87-1.94-1.94-1.94h-39.9c-1.07,0-1.94.87-1.94,1.94v47.84c0,1.07.87,1.94,1.94,1.94h40.56c1.07,0,1.94-.87,1.94-1.94v-9.11c0-1.07-.87-1.94-1.94-1.94Z"/><path class="cls-1" d="M305.11,49.44h-37.75c-1.07,0-1.94.87-1.94,1.94v47.84c0,1.07.87,1.94,1.94,1.94h13.25c1.07,0,1.94-.87,1.94-1.94v-12.95c0-1.07.87-1.94,1.94-1.94h19.08c1.07,0,1.94-.87,1.94-1.94v-9.11c0-1.07-.87-1.94-1.94-1.94h-19.08c-1.07,0-1.94-.87-1.94-1.94v-5.05c0-1.07.87-1.94,1.94-1.94h20.63c1.07,0,1.94-.87,1.94-1.94v-9.11c0-1.07-.87-1.94-1.94-1.94Z"/><path class="cls-2" d="M315.2,49.44h13.25c1.07,0,1.94.87,1.94,1.94v47.84c0,1.07-.87,1.94-1.94,1.94h-13.25c-1.07,0-1.94-.87-1.94-1.94v-47.84c0-1.07.87-1.94,1.94-1.94Z"/><path class="cls-1" d="M356.93,63.56c0-1.55,1.25-2.14,3.17-2.14,4.03,0,10.88,2.54,16.04,5.13.97.49,2.15.09,2.62-.89l4.57-9.57c.45-.93.08-2.04-.83-2.54-5.72-3.16-13.44-5.18-20.92-5.18-13.43,0-22.14,6.49-22.14,16.82,0,18.15,26.79,13.72,26.79,20.44,0,1.84-1.62,2.66-4.13,2.66-4.68,0-12.48-2.88-17.88-6.65-.98-.68-2.34-.36-2.87.72l-4.58,9.26c-.43.86-.16,1.91.63,2.45,6.79,4.63,16.12,7.28,24.55,7.28,11.66,0,21.77-5.09,21.77-16.6,0-18.74-26.79-14.68-26.79-21.17Z"/><path class="cls-1" d="M487.91,63.43c0-1.57,1.27-2.17,3.21-2.17,3.93,0,10.52,2.39,15.66,4.91.08.04.16.08.25.11,1.59.59,3.26-.7,3.25-2.4l-.02-8.53c0-1.73-.82-3.13-2.07-3.75-2.44-1.2-8.04-3.56-15.58-3.56-13.6,0-22.41,6.57-22.41,17.03,0,18.37,27.12,13.89,27.12,20.68,0,1.87-1.64,2.69-4.18,2.69-4.74,0-12.66-2.93-18.12-6.75-.98-.69-2.34-.36-2.87.71l-4.66,9.42c-.43.86-.16,1.91.63,2.45,6.87,4.7,16.33,7.38,24.87,7.38,11.8,0,22.04-5.15,22.04-16.8,0-18.97-27.12-14.86-27.12-21.43Z"/><path class="cls-1" d="M559.29,49.44h-42.7c-1.07,0-1.94.87-1.94,1.94v9.63c0,1.07.87,1.94,1.94,1.94h10.81c1.07,0,1.94.87,1.94,1.94v34.34c0,1.07.87,1.94,1.94,1.94h13.25c1.07,0,1.94-.87,1.94-1.94v-34.34c0-1.07.87-1.94,1.94-1.94h10.89c1.07,0,1.94-.87,1.94-1.94v-9.63c0-1.07-.87-1.94-1.94-1.94Z"/><path class="cls-1" d="M437.68,49.44h-13.25c-1.07,0-1.94.87-1.94,1.94v16.19c0,1.07-.87,1.94-1.94,1.94h-12.14c-1.07,0-1.94-.87-1.94-1.94v-16.19c0-1.07-.87-1.94-1.94-1.94h-13.25c-1.07,0-1.94.87-1.94,1.94v47.84c0,1.07.87,1.94,1.94,1.94h13.25c1.07,0,1.94-.87,1.94-1.94v-14.79c0-1.07.87-1.94,1.94-1.94h12.14c1.07,0,1.94.87,1.94,1.94v14.79c0,1.07.87,1.94,1.94,1.94h13.25c1.07,0,1.94-.87,1.94-1.94v-47.84c0-1.07-.87-1.94-1.94-1.94Z"/><path class="cls-1" d="M613.42,49.44h-13.25c-1.07,0-1.94.87-1.94,1.94v27.87c0,5.16-3.25,8.41-7.45,8.41s-7.97-3.32-7.97-8.41v-27.87c0-1.07-.87-1.94-1.94-1.94h-13.25c-1.07,0-1.94.87-1.94,1.94v27.87c0,13.72,9.96,22.65,25.02,22.65s24.65-8.93,24.65-22.65v-27.87c0-1.07-.87-1.94-1.94-1.94Z"/><path class="cls-1" d="M644.82,49.44h-21.17c-1.07,0-1.94.87-1.94,1.94v47.84c0,1.07.87,1.94,1.94,1.94h20.5c17.49,0,28.79-10.18,28.79-25.89s-11.07-25.82-28.12-25.82ZM645,87.8h-4.48c-1.07,0-1.94-.87-1.94-1.94v-21.28c0-1.07.87-1.94,1.94-1.94h3.67c6.64,0,11.45,5.02,11.45,12.69s-4.44,12.47-10.64,12.47Z"/><path class="cls-2" d="M680.15,49.44h13.25c1.07,0,1.94.87,1.94,1.94v47.84c0,1.07-.87,1.94-1.94,1.94h-13.25c-1.07,0-1.94-.87-1.94-1.94v-47.84c0-1.07.87-1.94,1.94-1.94Z"/><path class="cls-1" d="M729.41,48.99c-16.46,0-28.42,10.99-28.42,26.34s11.96,26.63,28.42,26.63,28.42-11.29,28.42-26.63-11.96-26.34-28.42-26.34ZM729.84,87.6c-5.9,0-11.53-5.24-11.53-12.32s5.55-12.17,11.53-12.17,11.08,5.09,11.08,12.17-5.18,12.32-11.08,12.32Z"/></svg>